<?xml version="1.0" encoding="UTF-8" standalone="no"?>
<!-- Created with Inkscape (http://www.inkscape.org/) -->

<svg
   width="285.75mm"
   height="285.75mm"
   viewBox="0 0 285.75 285.75"
   version="1.1"
   id="svg1"
   xmlns:xlink="http://www.w3.org/1999/xlink"
   xmlns="http://www.w3.org/2000/svg"
   xmlns:svg="http://www.w3.org/2000/svg">
  <defs
     id="defs1">
    <linearGradient
       id="swatch3">
      <stop
         style="stop-color:#f06e10;stop-opacity:1;"
         offset="0"
         id="stop3" />
    </linearGradient>
    <linearGradient
       xlink:href="#swatch3"
       id="linearGradient3"
       x1="56.256714"
       y1="137.34169"
       x2="153.88815"
       y2="137.34169"
       gradientUnits="userSpaceOnUse" />
    <linearGradient
       xlink:href="#swatch3"
       id="linearGradient58"
       gradientUnits="userSpaceOnUse"
       x1="56.256714"
       y1="137.34169"
       x2="153.88815"
       y2="137.34169" />
  </defs>
  <g
     id="g6">
    <rect
       style="fill:#ffffff;fill-opacity:1;fill-rule:evenodd;stroke:#f1f5f9;stroke-width:4;stroke-dasharray:none;stroke-opacity:1;paint-order:stroke fill markers"
       id="rect1"
       width="249.24182"
       height="249.24182"
       x="18.254089"
       y="18.254089"
       ry="52.770977" />
    <g
       id="g5">
      <rect
         style="fill:#f1f5f9;fill-opacity:1;fill-rule:evenodd;stroke:none;stroke-width:8.35546;stroke-linecap:round;stroke-linejoin:round;stroke-dasharray:none;stroke-opacity:1;paint-order:stroke fill markers"
         id="rect3"
         width="107.29054"
         height="3"
         x="68.981384"
         y="70.269531"
         ry="1.5" />
      <rect
         style="fill:#f1f5f9;fill-opacity:1;fill-rule:evenodd;stroke:none;stroke-width:7.64833;stroke-linecap:round;stroke-linejoin:round;stroke-dasharray:none;stroke-opacity:1;paint-order:stroke fill markers"
         id="rect3-3"
         width="89.898621"
         height="3"
         x="43.351185"
         y="90.727715"
         ry="1.5" />
      <rect
         style="fill:#f1f5f9;fill-opacity:1;fill-rule:evenodd;stroke:none;stroke-width:5.05145;stroke-linecap:round;stroke-linejoin:round;stroke-dasharray:none;stroke-opacity:1;paint-order:stroke fill markers"
         id="rect3-7"
         width="39.215084"
         height="3"
         x="43.351185"
         y="159.2438"
         ry="1.5" />
      <rect
         style="fill:#f1f5f9;fill-opacity:1;fill-rule:evenodd;stroke:none;stroke-width:3.98884;stroke-linecap:round;stroke-linejoin:round;stroke-dasharray:none;stroke-opacity:1;paint-order:stroke fill markers"
         id="rect3-3-3"
         width="24.451899"
         height="3"
         x="43.351185"
         y="179.70198"
         ry="1.5" />
      <rect
         style="fill:#f1f5f9;fill-opacity:1;fill-rule:evenodd;stroke:none;stroke-width:6.13032;stroke-linecap:round;stroke-linejoin:round;stroke-dasharray:none;stroke-opacity:1;paint-order:stroke fill markers"
         id="rect3-7-4"
         width="57.754898"
         height="3"
         x="179.95981"
         y="159.2438"
         ry="1.5" />
      <rect
         style="fill:#f1f5f9;fill-opacity:1;fill-rule:evenodd;stroke:none;stroke-width:5.72351;stroke-linecap:round;stroke-linejoin:round;stroke-dasharray:none;stroke-opacity:1;paint-order:stroke fill markers"
         id="rect3-3-3-7"
         width="50.343384"
         height="3"
         x="154.78812"
         y="179.70198"
         ry="1.5" />
      <rect
         style="fill:#f1f5f9;fill-opacity:1;fill-rule:evenodd;stroke:none;stroke-width:6.71848;stroke-linecap:round;stroke-linejoin:round;stroke-dasharray:none;stroke-opacity:1;paint-order:stroke fill markers"
         id="rect3-3-2"
         width="69.368309"
         height="3"
         x="43.351185"
         y="111.1859"
         ry="1.5" />
      <path
         style="fill:none;fill-opacity:1;fill-rule:evenodd;stroke:#f1f5f9;stroke-width:3;stroke-linecap:round;stroke-linejoin:round;stroke-dasharray:none;stroke-opacity:1;paint-order:stroke fill markers"
         d="m 55.644298,238.8751 c 44.889872,39.27243 56.878252,-38.2723 105.382502,-8.34755 40.06,24.71506 63.39163,-22.65894 63.39163,-22.65894"
         id="path4" />
    </g>
    <g
       id="g58"
       transform="matrix(0.41967609,0.41967609,-0.41967609,0.41967609,132.17456,65.443241)">
      <path
         style="display:none;fill:url(#linearGradient58);stroke:none;stroke-width:0.45607;paint-order:stroke fill markers"
         d="m 57.193503,1.5356982 c 5.853368,-34.3437122 89.084147,-34.3437122 95.612997,0 C 159.33535,35.87941 126.93588,298.30767 105,298.90444 83.064124,299.50121 51.340135,35.87941 57.193503,1.5356982 Z"
         id="path1-1" />
      <path
         style="display:inline;fill:#b6530c;fill-opacity:1;stroke:none;stroke-width:0.40573;paint-order:stroke fill markers"
         d="m 62.478393,4.0213842 c 5.207277,-30.5528772 79.251097,-30.5528772 85.059297,0 C 153.34589,34.57426 124.52265,268.03586 105.00804,268.56676 85.493432,269.09767 57.271116,34.57426 62.478393,4.0213842 Z"
         id="path1-0" />
      <path
         id="path1"
         style="display:inline;fill:url(#linearGradient3);stroke:none;stroke-width:0.45607;paint-order:stroke fill markers"
         d="m 104.74658,-24.222294 c -22.355474,0 -44.626488,8.586261 -47.553172,25.7581176 C 51.34004,35.879535 83.063916,299.50101 104.99979,298.90424 126.93567,298.30747 159.33554,35.879535 152.80669,1.5358236 149.54227,-15.636033 127.10205,-24.222294 104.74658,-24.222294 Z M 67.650651,4.3651082 C 77.210394,7.9256279 92.857482,9.686846 103.16218,10.001973 96.123572,15.912061 73.144846,12.665964 67.650651,4.3651082 Z m 76.313689,6.9158568 c -5.49419,8.300856 -28.47292,11.546952 -35.51153,5.636865 10.3047,-0.315128 25.95179,-2.076345 35.51153,-5.636865 z M 75.206779,36.42465 c 7.155073,2.722973 18.888123,4.128427 26.619561,4.419885 C 96.51272,45.242186 79.285593,42.6833 75.206779,36.42465 Z m 59.731241,21.683948 c -4.07881,6.25865 -21.30595,8.817536 -26.61957,4.419885 7.73144,-0.291458 19.4645,-1.696912 26.61957,-4.419885 z M 70.301652,74.199089 c 7.155073,2.722973 18.888123,4.128427 26.619564,4.419885 -5.313623,4.397651 -22.54075,1.838765 -26.619564,-4.419885 z m 55.281378,30.055531 c -4.07881,6.25865 -21.30594,8.81753 -26.619562,4.41988 7.731442,-0.29146 19.464492,-1.6969 26.619562,-4.41988 z m -43.884141,36.01124 c 7.155073,2.72297 18.888111,4.12842 26.619561,4.41988 -5.31363,4.39765 -22.540747,1.83877 -26.619561,-4.41988 z m 41.822251,36.01072 c -4.00748,5.61374 -21.3144,7.56065 -26.86244,2.55798 7.61419,0.79608 19.31501,-0.85607 26.86244,-2.55798 z M 94.635567,210.8786 c 5.549253,2.03359 14.693583,2.34999 20.728453,1.9327 -4.21455,4.82203 -17.633561,3.86876 -20.728453,-1.9327 z" />
      <g
         id="g4"
         style="display:inline">
        <path
           style="fill:#0c7707;fill-opacity:1;stroke:none;stroke-width:1.35629;paint-order:stroke fill markers"
           d="m 105.07246,-112.50461 c 29.91292,-0.0481 12.59736,88.041022 0,87.421952 -12.59734,-0.619072 -29.91289,-87.373772 0,-87.421952 z"
           id="path3" />
        <path
           style="fill:#0a6306;fill-opacity:1;stroke:none;stroke-width:1.35629;paint-order:stroke fill markers"
           d="m 139.74168,-105.33627 c 27.47923,11.818516 -23.35031,85.817699 -34.66922,80.253612 -11.31889,-5.564081 7.19,-92.072042 34.66922,-80.253612 z"
           id="path3-9" />
        <path
           style="fill:#0a6306;fill-opacity:1;stroke:none;stroke-width:1.35629;paint-order:stroke fill markers"
           d="m 70.403244,-105.33627 c -27.47923,11.818518 23.350309,85.817702 34.669216,80.253612 11.31889,-5.56408 -7.189997,-92.072042 -34.669216,-80.253612 z"
           id="path3-9-2" />
      </g>
    </g>
  </g>
</svg>
